<?xml version="1.0" encoding="UTF-8" standalone="no"?>
<svg
   xmlns:dc="http://purl.org/dc/elements/1.1/"
   xmlns:cc="http://creativecommons.org/ns#"
   xmlns:rdf="http://www.w3.org/1999/02/22-rdf-syntax-ns#"
   xmlns:svg="http://www.w3.org/2000/svg"
   xmlns="http://www.w3.org/2000/svg"
   id="svg22"
   style="shape-rendering:geometricPrecision; text-rendering:geometricPrecision; image-rendering:optimizeQuality; fill-rule:evenodd; clip-rule:evenodd"
   height="512px"
   width="384px"
   version="1.1">
  <metadata
     id="metadata28">
    <rdf:RDF>
      <cc:Work
         rdf:about="">
        <dc:format>image/svg+xml</dc:format>
        <dc:type
           rdf:resource="http://purl.org/dc/dcmitype/StillImage" />
      </cc:Work>
    </rdf:RDF>
  </metadata>
  <defs
     id="defs26" />
  <g
     id="g4">
    <path
       id="path2"
       d="M 21.5,-0.5 C 111.5,-0.5 201.5,-0.5 291.5,-0.5C 294.563,0.699136 297.563,2.19914 300.5,4C 326.639,29.1384 352.472,54.6384 378,80.5C 380.412,83.9905 382.245,87.6571 383.5,91.5C 383.5,224.167 383.5,356.833 383.5,489.5C 379.925,500.076 372.925,507.409 362.5,511.5C 248.5,511.5 134.5,511.5 20.5,511.5C 10.5,507.5 3.5,500.5 -0.5,490.5C -0.5,334.167 -0.5,177.833 -0.5,21.5C 3.16667,10.5 10.5,3.16667 21.5,-0.5 Z M 23.5,21.5 C 107.833,21.5 192.167,21.5 276.5,21.5C 276.333,47.1688 276.5,72.8355 277,98.5C 278.167,102.333 280.667,104.833 284.5,106C 310.498,106.5 336.498,106.667 362.5,106.5C 362.996,233.581 362.496,360.581 361,487.5C 360.167,488.333 359.333,489.167 358.5,490C 247.167,490.667 135.833,490.667 24.5,490C 23.3333,488.833 22.1667,487.667 21,486.5C 20.3333,332.833 20.3333,179.167 21,25.5C 21.6622,24.0161 22.4955,22.6828 23.5,21.5 Z M 298.5,32.5 C 315.994,49.8269 333.661,66.9936 351.5,84C 333.836,84.4999 316.17,84.6666 298.5,84.5C 298.5,67.1667 298.5,49.8333 298.5,32.5 Z"
       fill="#fefffe"
       style="opacity:1" />
  </g>
  <g
     id="g8">
    <path
       id="path6"
       d="M 169.5,191.5 C 187.677,189.606 202.51,195.606 214,209.5C 215.608,221.896 210.441,226.396 198.5,223C 183.811,208.882 169.311,209.049 155,223.5C 148.79,232.92 146.79,243.253 149,254.5C 155.117,272.971 167.617,280.138 186.5,276C 191.723,273.443 196.39,270.109 200.5,266C 212.838,264.338 217.338,269.505 214,281.5C 201.29,295.738 185.456,301.238 166.5,298C 138.178,288.327 125.012,268.494 127,238.5C 130.938,213.403 145.104,197.737 169.5,191.5 Z"
       fill="#fefffe"
       style="opacity:1" />
  </g>
  <g
     id="g12">
    <path
       id="path10"
       d="M 235.5,194.5 C 240.447,193.628 244.613,194.961 248,198.5C 256.61,218.719 264.943,239.053 273,259.5C 281.324,239.201 289.658,218.867 298,198.5C 301.396,194.797 305.563,193.631 310.5,195C 316.297,197.76 318.463,202.26 317,208.5C 305.333,237.167 293.667,265.833 282,294.5C 275.632,300.124 269.632,299.791 264,293.5C 252.333,265.167 240.667,236.833 229,208.5C 227.815,202.202 229.982,197.535 235.5,194.5 Z"
       fill="#fefffe"
       style="opacity:1" />
  </g>
  <g
     id="g16">
    <path
       id="path14"
       d="M 73.5,340.5 C 152.167,340.333 230.834,340.5 309.5,341C 316.132,344.097 318.299,349.264 316,356.5C 314.039,359.135 311.539,360.969 308.5,362C 230.5,362.667 152.5,362.667 74.5,362C 66.6536,358.776 64.487,353.276 68,345.5C 69.7297,343.598 71.563,341.931 73.5,340.5 Z"
       fill="#fefffe"
       style="opacity:1" />
  </g>
  <g
     id="g20">
    <path
       id="path18"
       d="M 73.5,405.5 C 152.167,405.333 230.834,405.5 309.5,406C 314.689,407.534 317.023,411.034 316.5,416.5C 316.793,421.054 314.793,424.22 310.5,426C 231.167,426.667 151.833,426.667 72.5,426C 66.4578,422.252 64.9578,417.085 68,410.5C 69.7297,408.598 71.563,406.931 73.5,405.5 Z"
       fill="#fefffe"
       style="opacity:1" />
  </g>
</svg>
